<svg width="104" height="26" viewBox="0 0 104 26" fill="none" xmlns="http://www.w3.org/2000/svg">
<g clip-path="url(#clip0_89_739)">
<path fill-rule="evenodd" clip-rule="evenodd" d="M80.7673 6.91961L75.0729 25.0796H79.993L85.5932 7.22004C84.9934 7.76306 84.1986 8.09373 83.3268 8.09373C82.3041 8.09373 81.3874 7.6387 80.7673 6.91961ZM12.9152 13.7267H17.9062C17.8117 12.5972 17.5433 11.595 17.1008 10.7199C16.6585 9.84475 16.0743 9.10857 15.3488 8.51136C14.6231 7.90823 13.7795 7.44998 12.8179 7.13658C11.8563 6.8232 10.8032 6.6665 9.65875 6.6665C8.03052 6.6665 6.55566 7.02424 5.2342 7.73971C3.91273 8.44928 2.86264 9.49882 2.08391 10.8884C1.30519 12.272 0.915833 13.975 0.915833 15.9972C0.915833 18.0076 1.29635 19.7076 2.05738 21.0972C2.8243 22.4868 3.86554 23.5392 5.18111 24.2548C6.50257 24.9702 7.99512 25.3279 9.65875 25.3279C10.9861 25.3279 12.1512 25.124 13.1542 24.716C14.1571 24.308 14.9978 23.7699 15.6761 23.1018C16.3605 22.4276 16.8884 21.6943 17.2601 20.9021C17.6317 20.1039 17.8471 19.3203 17.9062 18.5516L12.9152 18.5161C12.8562 18.9064 12.7412 19.2582 12.5701 19.5717C12.4049 19.8791 12.1896 20.1422 11.9241 20.361C11.6586 20.5799 11.346 20.7483 10.9861 20.8666C10.6263 20.9789 10.2192 21.0351 9.76494 21.0351C8.96853 21.0351 8.28715 20.8489 7.72079 20.4764C7.15445 20.0978 6.72084 19.5362 6.41998 18.7912C6.12501 18.0401 5.97752 17.1088 5.97752 15.9972C5.97752 14.9448 6.12205 14.043 6.41113 13.2921C6.7061 12.5412 7.13676 11.9646 7.7031 11.5625C8.27535 11.1604 8.97442 10.9593 9.80034 10.9593C10.2723 10.9593 10.6941 11.0274 11.0658 11.1633C11.4374 11.2934 11.753 11.4826 12.0126 11.731C12.2781 11.9735 12.4846 12.2632 12.6321 12.6002C12.7854 12.9372 12.8798 13.3128 12.9152 13.7267ZM33.1996 6.91484H20.1382V25.0796H33.1642V21.1061H25.0583V17.9841H32.5271V14.0105H25.0583V10.8884H33.1996V6.91484ZM35.1442 10.8884V6.91484H50.8955V10.8884H45.4445V25.0796H40.5952V10.8884H35.1442ZM58.8709 6.91484H52.7474V25.0796H57.5612V14.5072H57.7027L61.738 24.9377H64.6405L68.6757 14.5782H68.8173V25.0796H73.6312V6.91484H67.5077L63.2954 17.2036H63.0831L58.8709 6.91484ZM98.1692 13.7267H103.16C103.066 12.5972 102.797 11.595 102.355 10.7199C101.912 9.84475 101.328 9.10857 100.603 8.51136C99.8772 7.90823 99.0335 7.44998 98.072 7.13658C97.1103 6.8232 96.0573 6.6665 94.9128 6.6665C93.2845 6.6665 91.8096 7.02424 90.4882 7.73971C89.1668 8.44928 88.1166 9.49882 87.3379 10.8884C86.5592 12.272 86.1699 13.975 86.1699 15.9972C86.1699 18.0076 86.5503 19.7076 87.3114 21.0972C88.0784 22.4868 89.1196 23.5392 90.4352 24.2548C91.7566 24.9702 93.2491 25.3279 94.9128 25.3279C96.2401 25.3279 97.4052 25.124 98.4082 24.716C99.411 24.308 100.252 23.7699 100.93 23.1018C101.614 22.4276 102.143 21.6943 102.514 20.9021C102.886 20.1039 103.101 19.3203 103.16 18.5516L98.1692 18.5161C98.1103 18.9064 97.9953 19.2582 97.8241 19.5717C97.6589 19.8791 97.4437 20.1422 97.1781 20.361C96.9127 20.5799 96.6 20.7483 96.2401 20.8666C95.8804 20.9789 95.4733 21.0351 95.0191 21.0351C94.2225 21.0351 93.5412 20.8489 92.9748 20.4764C92.4084 20.0978 91.9748 19.5362 91.674 18.7912C91.3791 18.0401 91.2315 17.1088 91.2315 15.9972C91.2315 14.9448 91.3761 14.043 91.6651 13.2921C91.9601 12.5412 92.3908 11.9646 92.9572 11.5625C93.5294 11.1604 94.2284 10.9593 95.0543 10.9593C95.5263 10.9593 95.9482 11.0274 96.3198 11.1633C96.6915 11.2934 97.0071 11.4826 97.2666 11.731C97.5321 11.9735 97.7386 12.2632 97.8862 12.6002C98.0394 12.9372 98.1339 13.3128 98.1692 13.7267Z" fill="#222222"/>
<path d="M83.3268 6.84526C85.1946 6.84526 86.7087 5.32765 86.7087 3.45559C86.7087 1.58353 85.1946 0.065918 83.3268 0.065918C81.4591 0.065918 79.9449 1.58353 79.9449 3.45559C79.9449 5.32765 81.4591 6.84526 83.3268 6.84526Z" fill="#E48400"/>
</g>
<defs>
<clipPath id="clip0_89_739">
<rect width="104" height="26" fill="white"/>
</clipPath>
</defs>
</svg>
