<svg width="293" height="293" viewBox="0 0 293 293" fill="none" xmlns="http://www.w3.org/2000/svg">
<rect width="293" height="293" rx="30" fill="#F4F4F4"/>
<g clip-path="url(#clip0_92_829)">
<path fill-rule="evenodd" clip-rule="evenodd" d="M412.229 43.7998L384.548 132.504H408.465L435.688 45.2673C432.773 47.9197 428.909 49.5349 424.671 49.5349C419.7 49.5349 415.244 47.3123 412.229 43.7998ZM82.3937 77.0496H106.655C106.196 71.5325 104.891 66.6373 102.74 62.3626C100.59 58.088 97.7502 54.492 94.2235 51.5749C90.6958 48.6288 86.595 46.3905 81.9205 44.8596C77.246 43.3289 72.1271 42.5635 66.5636 42.5635C58.6486 42.5635 51.4792 44.3109 45.0555 47.8057C38.6317 51.2716 33.5271 56.3983 29.7416 63.1858C25.9562 69.9439 24.0635 78.2626 24.0635 88.1403C24.0635 97.9605 25.9132 106.264 29.6126 113.052C33.3407 119.84 38.4023 124.98 44.7974 128.476C51.2211 131.97 58.4766 133.717 66.5636 133.717C73.0161 133.717 78.6799 132.721 83.5551 130.728C88.4303 128.735 92.5172 126.107 95.8147 122.843C99.1415 119.55 101.708 115.969 103.514 112.099C105.321 108.2 106.368 104.373 106.655 100.618L82.3937 100.444C82.1069 102.351 81.5477 104.069 80.7161 105.6C79.913 107.102 78.8664 108.387 77.5759 109.456C76.2853 110.525 74.7655 111.347 73.0161 111.925C71.2668 112.474 69.288 112.749 67.0798 112.749C63.2084 112.749 59.8962 111.839 57.143 110.019C54.39 108.17 52.2822 105.427 50.8197 101.788C49.3858 98.1191 48.6688 93.5702 48.6688 88.1403C48.6688 82.9997 49.3714 78.5946 50.7767 74.9268C52.2105 71.2589 54.304 68.4424 57.057 66.4784C59.8388 64.5144 63.237 63.5324 67.2519 63.5324C69.5461 63.5324 71.5966 63.8645 73.4033 64.5288C75.2099 65.1642 76.7442 66.0884 78.0061 67.3016C79.2965 68.486 80.3002 69.9012 81.0172 71.5474C81.7628 73.1935 82.2216 75.0279 82.3937 77.0496ZM180.998 43.7765H117.505V132.504H180.826V113.096H141.423V97.8455H177.729V78.436H141.423V63.1858H180.998V43.7765ZM190.451 63.1858V43.7765H267.02V63.1858H240.521V132.504H216.949V63.1858H190.451ZM305.789 43.7765H276.022V132.504H299.422V80.8621H300.11L319.726 131.811H333.835L353.45 81.209H354.139V132.504H377.54V43.7765H347.773L327.297 94.033H326.265L305.789 43.7765ZM496.821 77.0496H521.083C520.624 71.5325 519.319 66.6373 517.168 62.3626C515.017 58.088 512.179 54.492 508.651 51.5749C505.124 48.6288 501.023 46.3905 496.349 44.8596C491.674 43.3289 486.555 42.5635 480.992 42.5635C473.076 42.5635 465.907 44.3109 459.483 47.8057C453.06 51.2716 447.955 56.3983 444.17 63.1858C440.384 69.9439 438.492 78.2626 438.492 88.1403C438.492 97.9605 440.341 106.264 444.041 113.052C447.769 119.84 452.831 124.98 459.226 128.476C465.649 131.97 472.904 133.717 480.992 133.717C487.444 133.717 493.108 132.721 497.983 130.728C502.858 128.735 506.945 126.107 510.243 122.843C513.569 119.55 516.136 115.969 517.943 112.099C519.749 108.2 520.796 104.373 521.083 100.618L496.821 100.444C496.535 102.351 495.976 104.069 495.144 105.6C494.341 107.102 493.295 108.387 492.004 109.456C490.714 110.525 489.193 111.347 487.444 111.925C485.695 112.474 483.716 112.749 481.508 112.749C477.636 112.749 474.324 111.839 471.571 110.019C468.818 108.17 466.71 105.427 465.248 101.788C463.814 98.1191 463.097 93.5702 463.097 88.1403C463.097 82.9997 463.799 78.5946 465.204 74.9268C466.638 71.2589 468.732 68.4424 471.485 66.4784C474.267 64.5144 477.665 63.5324 481.68 63.5324C483.974 63.5324 486.025 63.8645 487.831 64.5288C489.638 65.1642 491.172 66.0884 492.434 67.3016C493.725 68.486 494.728 69.9012 495.446 71.5474C496.191 73.1935 496.65 75.0279 496.821 77.0496Z" fill="#222222"/>
</g>
<g clip-path="url(#clip1_92_829)">
<path fill-rule="evenodd" clip-rule="evenodd" d="M161.291 170.534L133.568 258.54H157.521L184.785 171.99C181.865 174.621 177.996 176.224 173.751 176.224C168.772 176.224 164.31 174.019 161.291 170.534ZM-169.036 203.522H-144.738C-145.198 198.048 -146.505 193.191 -148.659 188.95C-150.812 184.709 -153.656 181.142 -157.188 178.248C-160.721 175.325 -164.828 173.104 -169.509 171.585C-174.191 170.066 -179.317 169.307 -184.889 169.307C-192.816 169.307 -199.996 171.041 -206.429 174.508C-212.863 177.947 -217.975 183.033 -221.766 189.767C-225.557 196.472 -227.453 204.725 -227.453 214.525C-227.453 224.268 -225.6 232.506 -221.895 239.241C-218.161 245.975 -213.092 251.075 -206.688 254.543C-200.254 258.01 -192.988 259.743 -184.889 259.743C-178.427 259.743 -172.755 258.755 -167.872 256.778C-162.99 254.8 -158.897 252.193 -155.595 248.955C-152.263 245.688 -149.693 242.134 -147.883 238.295C-146.074 234.427 -145.026 230.629 -144.738 226.904L-169.036 226.732C-169.323 228.624 -169.883 230.329 -170.716 231.848C-171.52 233.337 -172.568 234.613 -173.861 235.673C-175.153 236.733 -176.675 237.55 -178.427 238.123C-180.179 238.667 -182.161 238.94 -184.372 238.94C-188.249 238.94 -191.567 238.037 -194.324 236.232C-197.081 234.397 -199.192 231.676 -200.657 228.065C-202.093 224.425 -202.811 219.912 -202.811 214.525C-202.811 209.425 -202.107 205.055 -200.7 201.416C-199.264 197.777 -197.167 194.982 -194.41 193.034C-191.624 191.085 -188.221 190.111 -184.2 190.111C-181.902 190.111 -179.849 190.44 -178.039 191.1C-176.23 191.73 -174.693 192.647 -173.43 193.85C-172.137 195.026 -171.132 196.43 -170.414 198.063C-169.667 199.696 -169.208 201.516 -169.036 203.522ZM-70.2846 170.511H-133.872V258.54H-70.4571V239.284H-109.919V224.154H-73.5584V204.897H-109.919V189.767H-70.2846V170.511ZM-60.8178 189.767V170.511H15.865V189.767H-10.6725V258.54H-34.2803V189.767H-60.8178ZM54.6916 170.511H24.8804V258.54H48.3157V207.304H49.0046L68.6497 257.852H82.7802L102.424 207.648H103.114V258.54H126.55V170.511H96.7383L76.2318 220.371H75.1981L54.6916 170.511ZM246.009 203.522H270.306C269.847 198.048 268.54 193.191 266.386 188.95C264.232 184.709 261.389 181.142 257.856 178.248C254.324 175.325 250.217 173.104 245.536 171.585C240.854 170.066 235.727 169.307 230.155 169.307C222.228 169.307 215.048 171.041 208.615 174.508C202.182 177.947 197.07 183.033 193.279 189.767C189.487 196.472 187.592 204.725 187.592 214.525C187.592 224.268 189.444 232.506 193.149 239.241C196.883 245.975 201.952 251.075 208.357 254.543C214.79 258.01 222.056 259.743 230.155 259.743C236.617 259.743 242.289 258.755 247.172 256.778C252.054 254.8 256.147 252.193 259.45 248.955C262.781 245.688 265.352 242.134 267.161 238.295C268.971 234.427 270.019 230.629 270.306 226.904L246.009 226.732C245.722 228.624 245.162 230.329 244.328 231.848C243.524 233.337 242.477 234.613 241.184 235.673C239.892 236.733 238.369 237.55 236.617 238.123C234.866 238.667 232.884 238.94 230.673 238.94C226.795 238.94 223.478 238.037 220.721 236.232C217.963 234.397 215.853 231.676 214.388 228.065C212.952 224.425 212.234 219.912 212.234 214.525C212.234 209.425 212.938 205.055 214.345 201.416C215.781 197.777 217.878 194.982 220.635 193.034C223.421 191.085 226.824 190.111 230.844 190.111C233.142 190.111 235.196 190.44 237.005 191.1C238.815 191.73 240.351 192.647 241.614 193.85C242.907 195.026 243.913 196.43 244.631 198.063C245.377 199.696 245.837 201.516 246.009 203.522Z" fill="#222222"/>
<path d="M173.751 170.173C182.844 170.173 190.215 162.819 190.215 153.746C190.215 144.674 182.844 137.319 173.751 137.319C164.658 137.319 157.287 144.674 157.287 153.746C157.287 162.819 164.658 170.173 173.751 170.173Z" fill="#E48400"/>
</g>
<defs>
<clipPath id="clip0_92_829">
<rect width="244" height="127" fill="white" transform="translate(24 10)"/>
</clipPath>
<clipPath id="clip1_92_829">
<rect width="247" height="126" fill="white" transform="translate(23 137)"/>
</clipPath>
</defs>
</svg>
